<?xml version="1.0" encoding="utf-8"?>
<!-- Generator: Adobe Illustrator 21.0.0, SVG Export Plug-In . SVG Version: 6.00 Build 0)  -->
<svg version="1.1" id="Layer_1" xmlns="http://www.w3.org/2000/svg" xmlns:xlink="http://www.w3.org/1999/xlink" x="0px" y="0px"
	 viewBox="0 0 330 200" style="enable-background:new 0 0 330 200;" xml:space="preserve">
<style type="text/css">
	.st0{fill:none;stroke:#CCCCCC;}
	.st1{display:none;fill:#FFFFFF;enable-background:new    ;}
	.st2{font-family:'ArialMT';}
	.st3{font-size:12px;}
	.st4{fill:#231F20;}
	.st5{clip-path:url(#SVGID_2_);}
	.st6{opacity:0.25;fill:none;stroke:#BDBDBD;enable-background:new    ;}
	.st7{fill:none;stroke:#999999;stroke-width:1.5;}
	.st8{fill:none;stroke:#009988;stroke-width:2;}
	.st9{clip-path:url(#SVGID_4_);}
	.st10{fill:#FFFFFF;}
</style>
<g>
	<g>
		<g>
			<g>
				<g>
					<line class="st0" x1="41.2" y1="177" x2="36.2" y2="177"/>
					<line class="st0" x1="41.2" y1="157.3" x2="36.2" y2="157.3"/>
					<line class="st0" x1="41.2" y1="137.7" x2="36.2" y2="137.7"/>
					<line class="st0" x1="41.2" y1="118" x2="36.2" y2="118"/>
					<line class="st0" x1="41.2" y1="98.3" x2="36.2" y2="98.3"/>
					<line class="st0" x1="41.2" y1="78.7" x2="36.2" y2="78.7"/>
					<line class="st0" x1="41.2" y1="59" x2="36.2" y2="59"/>
					<line class="st0" x1="41.2" y1="39.3" x2="36.2" y2="39.3"/>
					<line class="st0" x1="41.2" y1="19.7" x2="36.2" y2="19.7"/>
					<line class="st0" x1="41.2" y1="0" x2="36.2" y2="0"/>
				</g>
				<g transform="translate(31.171875, 0)">
					<text transform="matrix(1 0 0 1 -6.6738 180.6)" class="st1 st2 st3">1</text>
					<text transform="matrix(1 0 0 1 -16.6816 160.9333)" class="st4 st2 st3">0.9</text>
					<text transform="matrix(1 0 0 1 -16.6816 141.2667)" class="st1 st2 st3">1.2</text>
					<text transform="matrix(1 0 0 1 -16.6816 121.6)" class="st4 st2 st3">1.1</text>
					<text transform="matrix(1 0 0 1 -16.6816 101.9333)" class="st1 st2 st3">1.4</text>
					<text transform="matrix(1 0 0 1 -16.6816 82.2667)" class="st4 st2 st3">1.3</text>
					<text transform="matrix(1 0 0 1 -16.6816 62.6)" class="st1 st2 st3">1.6</text>
					<text transform="matrix(1 0 0 1 -16.6816 42.9333)" class="st4 st2 st3">1.5</text>
					<text transform="matrix(1 0 0 1 -16.6816 23.2667)" class="st1 st2 st3">1.8</text>
					<text transform="matrix(1 0 0 1 -16.6816 3.6)" class="st1 st2 st3">1.9</text>
				</g>
				<line class="st0" x1="41.2" y1="0" x2="41.2" y2="177"/>
			</g>
		</g>
		<g>
			<defs>
				<rect id="SVGID_1_" x="41" width="288" height="177"/>
			</defs>
			<clipPath id="SVGID_2_">
				<use xlink:href="#SVGID_1_"  style="overflow:visible;"/>
			</clipPath>
			<g transform="translate(41, 0)" class="st5">
				<g>
					<g>
						<g>
							<line class="st6" x1="0" y1="0" x2="0" y2="177"/>
							<line class="st6" x1="24.1" y1="0" x2="24.1" y2="177"/>
							<line class="st6" x1="48.1" y1="0" x2="48.1" y2="177"/>
							<line class="st6" x1="72.2" y1="0" x2="72.2" y2="177"/>
							<line class="st6" x1="96.3" y1="0" x2="96.3" y2="177"/>
							<line class="st6" x1="120.3" y1="0" x2="120.3" y2="177"/>
							<line class="st6" x1="144.4" y1="0" x2="144.4" y2="177"/>
							<line class="st6" x1="168.5" y1="0" x2="168.5" y2="177"/>
							<line class="st6" x1="192.6" y1="0" x2="192.6" y2="177"/>
							<line class="st6" x1="216.6" y1="0" x2="216.6" y2="177"/>
							<line class="st6" x1="240.7" y1="0" x2="240.7" y2="177"/>
							<line class="st6" x1="264.8" y1="0" x2="264.8" y2="177"/>
							<line class="st6" x1="288.8" y1="0" x2="288.8" y2="177"/>
						</g>
						<g>
							<line class="st6" x1="0" y1="177" x2="288.8" y2="177"/>
							<line class="st6" x1="0" y1="157.3" x2="288.8" y2="157.3"/>
							<line class="st6" x1="0" y1="137.7" x2="288.8" y2="137.7"/>
							<line class="st6" x1="0" y1="118" x2="288.8" y2="118"/>
							<line class="st6" x1="0" y1="98.3" x2="288.8" y2="98.3"/>
							<line class="st6" x1="0" y1="78.7" x2="288.8" y2="78.7"/>
							<line class="st6" x1="0" y1="59" x2="288.8" y2="59"/>
							<line class="st6" x1="0" y1="39.3" x2="288.8" y2="39.3"/>
							<line class="st6" x1="0" y1="19.7" x2="288.8" y2="19.7"/>
							<line class="st6" x1="0" y1="0" x2="288.8" y2="0"/>
						</g>
					</g>
				</g>
				<g>
					<g>
						<line class="st7" x1="0" y1="373.7" x2="288.8" y2="373.7"/>
					</g>
				</g>
				<g>
					<g>
						<line class="st7" x1="24.1" y1="0" x2="24.1" y2="177"/>
					</g>
				</g>
				<g>
					<g>
						<g>
							<g>
								<g>
									<path class="st8" d="M36.1-1.8l2.4,25.5L40.9,48l2.4,9.7l2.4-7.6l2.4,27.4l2.4,1.9L53,65.7l2.4,16.7l2.4,4.2l2.4,7.6
										l2.4,4.3l2.4,5l2.4,0.2l2.4,0l2.4-2.8l2.4,0.8l2.4,8.2l2.4,8.1l2.4-5.4l2.4,3.4l2.4-0.8l2.4-5.7l2.4,11.6l2.4-0.7l2.4,2
										l2.4,4.7l2.4,2.3l2.4-7.7l2.4,5.3l2.4,0.9l2.4-5.9l2.4,6.4l2.4,1.4l2.4,1.5l2.4,4.6l2.4-1.2l2.4-2.6l2.4,4.2l2.4,3.1
										l2.4-0.8l2.4,0l2.4,3.5l2.4,1.6l2.4-1.3l2.4-0.8l2.4-1.9l2.4,1.3l2.4-2.6l2.4,2.3l2.4-1.5l2.4,5.8l2.4-3.2l2.4,4l2.4-1.5
										l2.4,0.8l2.4,1.1l2.4-1.1l2.4-0.6l2.4,1.9l2.4-2.2l2.4,2.5l2.4,4.9l2.4-2.9l2.4-2.4l2.4,3.1l2.4-1l2.4-1l2.4,5.6l2.4-1.4
										l2.4-1l2.4,1.6l2.4,3l2.4-3.6l2.4,1l2.4-0.8l2.4,0.2l2.4,1.3l2.4,1.2l2.4,2l2.4-0.2l2.4,0.1l2.4-0.6l2.4-1.3l2.4,1.7
										l2.4,0.1l2.4-1.8l2.4,0.1l2.4,0.6l2.4,0.5l2.4-0.9l2.4-1.2l2.4-0.2l2.4,0.3l2.4-0.2l2.4,0.9"/>
								</g>
							</g>
						</g>
					</g>
				</g>
			</g>
		</g>
		<g>
			<defs>
				<rect id="SVGID_3_" x="41" y="177" width="288" height="23"/>
			</defs>
			<clipPath id="SVGID_4_">
				<use xlink:href="#SVGID_3_"  style="overflow:visible;"/>
			</clipPath>
			<g transform="translate(41, 177)" class="st9">
				<g>
					<g>
						<line class="st0" x1="0" y1="0" x2="0" y2="5"/>
						<line class="st0" x1="24.1" y1="0" x2="24.1" y2="5"/>
						<line class="st0" x1="48.1" y1="0" x2="48.1" y2="5"/>
						<line class="st0" x1="72.2" y1="0" x2="72.2" y2="5"/>
						<line class="st0" x1="96.3" y1="0" x2="96.3" y2="5"/>
						<line class="st0" x1="120.3" y1="0" x2="120.3" y2="5"/>
						<line class="st0" x1="144.4" y1="0" x2="144.4" y2="5"/>
						<line class="st0" x1="168.5" y1="0" x2="168.5" y2="5"/>
						<line class="st0" x1="192.6" y1="0" x2="192.6" y2="5"/>
						<line class="st0" x1="216.6" y1="0" x2="216.6" y2="5"/>
						<line class="st0" x1="240.7" y1="0" x2="240.7" y2="5"/>
						<line class="st0" x1="264.8" y1="0" x2="264.8" y2="5"/>
						<line class="st0" x1="288.8" y1="0" x2="288.8" y2="5"/>
					</g>
					<g transform="translate(0, 8)">
						<text transform="matrix(1 0 0 1 -8.6719 11.4)" class="st1 st2 st3">-10</text>
						<text transform="matrix(1 0 0 1 20.7321 11.4)" class="st10 st2 st3">0</text>
						<text transform="matrix(1 0 0 1 41.4642 11.4)" class="st10 st2 st3">10</text>
						<text transform="matrix(1 0 0 1 65.5332 11.4)" class="st10 st2 st3">20</text>
						<text transform="matrix(1 0 0 1 89.6022 11.4)" class="st10 st2 st3">30</text>
						<text transform="matrix(1 0 0 1 113.6712 11.4)" class="st10 st2 st3">40</text>
						<text transform="matrix(1 0 0 1 137.7402 11.4)" class="st10 st2 st3">50</text>
						<text transform="matrix(1 0 0 1 161.8093 11.4)" class="st10 st2 st3">60</text>
						<text transform="matrix(1 0 0 1 185.8782 11.4)" class="st10 st2 st3">70</text>
						<text transform="matrix(1 0 0 1 209.9473 11.4)" class="st10 st2 st3">80</text>
						<text transform="matrix(1 0 0 1 234.0163 11.4)" class="st10 st2 st3">90</text>
						<text transform="matrix(1 0 0 1 254.7484 11.4)" class="st10 st2 st3">100</text>
						<text transform="matrix(1 0 0 1 279.2627 11.4)" class="st1 st2 st3">110</text>
					</g>
					<line class="st0" x1="0" y1="0" x2="288.8" y2="0"/>
				</g>
			</g>
		</g>
	</g>
</g>
</svg>
