<?xml version="1.0" encoding="utf-8"?>
<!-- Generator: Adobe Illustrator 21.0.0, SVG Export Plug-In . SVG Version: 6.00 Build 0)  -->
<svg version="1.1" id="Layer_1" xmlns="http://www.w3.org/2000/svg" xmlns:xlink="http://www.w3.org/1999/xlink" x="0px" y="0px"
	 viewBox="0 0 330 200" style="enable-background:new 0 0 330 200;" xml:space="preserve">
<style type="text/css">
	.st0{fill:none;stroke:#CCCCCC;}
	.st1{display:none;fill:#FFFFFF;enable-background:new    ;}
	.st2{font-family:'ArialMT';}
	.st3{font-size:12px;}
	.st4{fill:#231F20;}
	.st5{clip-path:url(#SVGID_2_);}
	.st6{opacity:0.25;fill:none;stroke:#BDBDBD;enable-background:new    ;}
	.st7{fill:none;stroke:#999999;stroke-width:1.5;}
	.st8{fill:none;stroke:#009988;stroke-width:2;}
	.st9{clip-path:url(#SVGID_4_);}
	.st10{fill:#FFFFFF;}
</style>
<g>
	<g>
		<g>
			<g>
				<g>
					<line class="st0" x1="50" y1="177" x2="45" y2="177"/>
					<line class="st0" x1="50" y1="157.3" x2="45" y2="157.3"/>
					<line class="st0" x1="50" y1="137.7" x2="45" y2="137.7"/>
					<line class="st0" x1="50" y1="118" x2="45" y2="118"/>
					<line class="st0" x1="50" y1="98.3" x2="45" y2="98.3"/>
					<line class="st0" x1="50" y1="78.7" x2="45" y2="78.7"/>
					<line class="st0" x1="50" y1="59" x2="45" y2="59"/>
					<line class="st0" x1="50" y1="39.3" x2="45" y2="39.3"/>
					<line class="st0" x1="50" y1="19.7" x2="45" y2="19.7"/>
					<line class="st0" x1="50" y1="0" x2="45" y2="0"/>
				</g>
				<g transform="translate(40, 0)">
					<text transform="matrix(1 0 0 1 -23.3555 180.6)" class="st1 st2 st3">0.05</text>
					<text transform="matrix(1 0 0 1 -16.6816 160.9333)" class="st4 st2 st3">0.5</text>
					<text transform="matrix(1 0 0 1 -23.3555 141.2667)" class="st1 st2 st3">0.15</text>
					<text transform="matrix(1 0 0 1 -16.6816 121.6)" class="st4 st2 st3">0.6</text>
					<text transform="matrix(1 0 0 1 -23.3555 101.9333)" class="st1 st2 st3">0.25</text>
					<text transform="matrix(1 0 0 1 -16.6816 82.2667)" class="st4 st2 st3">0.7</text>
					<text transform="matrix(1 0 0 1 -23.3555 62.6)" class="st1 st2 st3">0.35</text>
					<text transform="matrix(1 0 0 1 -16.6816 42.9333)" class="st4 st2 st3">0.8</text>
					<text transform="matrix(1 0 0 1 -23.3555 23.2667)" class="st1 st2 st3">0.45</text>
					<text transform="matrix(1 0 0 1 -16.6816 3.6)" class="st1 st2 st3">0.5</text>
				</g>
				<line class="st0" x1="50" y1="0" x2="50" y2="177"/>
			</g>
		</g>
		<g>
			<defs>
				<rect id="SVGID_1_" x="50" width="280" height="177"/>
			</defs>
			<clipPath id="SVGID_2_">
				<use xlink:href="#SVGID_1_"  style="overflow:visible;"/>
			</clipPath>
			<g transform="translate(50, 0)" class="st5">
				<g>
					<g>
						<g>
							<line class="st6" x1="0" y1="0" x2="0" y2="177"/>
							<line class="st6" x1="23.3" y1="0" x2="23.3" y2="177"/>
							<line class="st6" x1="46.7" y1="0" x2="46.7" y2="177"/>
							<line class="st6" x1="70" y1="0" x2="70" y2="177"/>
							<line class="st6" x1="93.3" y1="0" x2="93.3" y2="177"/>
							<line class="st6" x1="116.7" y1="0" x2="116.7" y2="177"/>
							<line class="st6" x1="140" y1="0" x2="140" y2="177"/>
							<line class="st6" x1="163.3" y1="0" x2="163.3" y2="177"/>
							<line class="st6" x1="186.7" y1="0" x2="186.7" y2="177"/>
							<line class="st6" x1="210" y1="0" x2="210" y2="177"/>
							<line class="st6" x1="233.3" y1="0" x2="233.3" y2="177"/>
							<line class="st6" x1="256.7" y1="0" x2="256.7" y2="177"/>
							<line class="st6" x1="280" y1="0" x2="280" y2="177"/>
						</g>
						<g>
							<line class="st6" x1="0" y1="177" x2="280" y2="177"/>
							<line class="st6" x1="0" y1="157.3" x2="280" y2="157.3"/>
							<line class="st6" x1="0" y1="137.7" x2="280" y2="137.7"/>
							<line class="st6" x1="0" y1="118" x2="280" y2="118"/>
							<line class="st6" x1="0" y1="98.3" x2="280" y2="98.3"/>
							<line class="st6" x1="0" y1="78.7" x2="280" y2="78.7"/>
							<line class="st6" x1="0" y1="59" x2="280" y2="59"/>
							<line class="st6" x1="0" y1="39.3" x2="280" y2="39.3"/>
							<line class="st6" x1="0" y1="19.7" x2="280" y2="19.7"/>
							<line class="st6" x1="0" y1="0" x2="280" y2="0"/>
						</g>
					</g>
				</g>
				<g>
					<g>
						<line class="st7" x1="0" y1="196.7" x2="280" y2="196.7"/>
					</g>
				</g>
				<g>
					<g>
						<line class="st7" x1="23.3" y1="0" x2="23.3" y2="177"/>
					</g>
				</g>
				<g>
					<g>
						<g>
							<g>
								<g>
									<path class="st8" d="M25.7,151.9l2.3,5.5l2.3-14.1l2.3-13.1l2.3-2.7l2.3-17.8l2.3-11.4L42,98l2.3,7.7l2.3-18.8l2.3,4.9
										l2.3,5.4l2.3-14.7l2.3-3.4l2.3-3.3l2.3-2.3l2.3-4.3l2.3-2.1l2.3-0.3l2.3,3.6l2.3-3.4l2.3-3.4L77,65l2.3,0l2.3-4L84,58
										l2.3,6.8l2.3-3.9l2.3-2.2l2.3-2.1l2.3,0.6l2.3-1.7l2.3,3.3l2.3-6l2.3-1.1l2.3,3l2.3,1l2.3-1.9l2.3-4.3l2.3-0.1L119,50
										l2.3-6l2.3,3.4l2.3-0.9l2.3-2.4l2.3,3l2.3-2.5l2.3-2.9l2.3,0.7L140,46l2.3-2.4l2.3-0.8l2.3,0.4l2.3-2.1l2.3,2.1l2.3-3.1
										l2.3-0.8l2.3-1.7l2.3,2.1l2.3-1.8l2.3,0.2L168,38l2.3-0.4l2.3-1.4l2.3,3.6l2.3-1.5l2.3-3.3l2.3,2.4l2.3,0.3l2.3,1.3
										l2.3-0.9l2.3-0.3l2.3-2.2l2.3,1.5l2.3,0.2l2.3-1.6l2.3-2.4l2.3,1.3l2.3-0.1l2.3-0.5l2.3,0.3l2.3,0.9l2.3-2.2l2.3-2.2
										l2.3,0.9l2.3,0.6l2.3-0.1l2.3,1.5l2.3-0.4l2.3,0.4l2.3,2l2.3-0.9l2.3-1.3l2.3,1.1L245,35l2.3-1.2l2.3-1.8l2.3,0.3l2.3,0.1
										l2.3-1.5"/>
								</g>
							</g>
						</g>
					</g>
				</g>
			</g>
		</g>
		<g>
			<defs>
				<rect id="SVGID_3_" x="50" y="177" width="280" height="23"/>
			</defs>
			<clipPath id="SVGID_4_">
				<use xlink:href="#SVGID_3_"  style="overflow:visible;"/>
			</clipPath>
			<g transform="translate(50, 177)" class="st9">
				<g>
					<g>
						<line class="st0" x1="0" y1="0" x2="0" y2="5"/>
						<line class="st0" x1="23.3" y1="0" x2="23.3" y2="5"/>
						<line class="st0" x1="46.7" y1="0" x2="46.7" y2="5"/>
						<line class="st0" x1="70" y1="0" x2="70" y2="5"/>
						<line class="st0" x1="93.3" y1="0" x2="93.3" y2="5"/>
						<line class="st0" x1="116.7" y1="0" x2="116.7" y2="5"/>
						<line class="st0" x1="140" y1="0" x2="140" y2="5"/>
						<line class="st0" x1="163.3" y1="0" x2="163.3" y2="5"/>
						<line class="st0" x1="186.7" y1="0" x2="186.7" y2="5"/>
						<line class="st0" x1="210" y1="0" x2="210" y2="5"/>
						<line class="st0" x1="233.3" y1="0" x2="233.3" y2="5"/>
						<line class="st0" x1="256.7" y1="0" x2="256.7" y2="5"/>
						<line class="st0" x1="280" y1="0" x2="280" y2="5"/>
					</g>
					<g transform="translate(0, 8)">
						<text transform="matrix(1 0 0 1 -8.6719 11.4)" class="st1 st2 st3">-10</text>
						<text transform="matrix(1 0 0 1 19.9964 11.4)" class="st10 st2 st3">0</text>
						<text transform="matrix(1 0 0 1 39.9928 11.4)" class="st10 st2 st3">10</text>
						<text transform="matrix(1 0 0 1 63.3262 11.4)" class="st10 st2 st3">20</text>
						<text transform="matrix(1 0 0 1 86.6595 11.4)" class="st10 st2 st3">30</text>
						<text transform="matrix(1 0 0 1 109.9928 11.4)" class="st10 st2 st3">40</text>
						<text transform="matrix(1 0 0 1 133.3262 11.4)" class="st10 st2 st3">50</text>
						<text transform="matrix(1 0 0 1 156.6595 11.4)" class="st10 st2 st3">60</text>
						<text transform="matrix(1 0 0 1 179.9929 11.4)" class="st10 st2 st3">70</text>
						<text transform="matrix(1 0 0 1 203.3262 11.4)" class="st10 st2 st3">80</text>
						<text transform="matrix(1 0 0 1 226.6595 11.4)" class="st10 st2 st3">90</text>
						<text transform="matrix(1 0 0 1 246.6559 11.4)" class="st10 st2 st3">100</text>
						<text transform="matrix(1 0 0 1 270.4346 11.4)" class="st1 st2 st3">110</text>
					</g>
					<line class="st0" x1="0" y1="0" x2="280" y2="0"/>
				</g>
			</g>
		</g>
	</g>
</g>
</svg>
