<?xml version="1.0" encoding="utf-8"?>
<!-- Generator: Adobe Illustrator 21.0.0, SVG Export Plug-In . SVG Version: 6.00 Build 0)  -->
<svg version="1.1" id="Layer_1" xmlns="http://www.w3.org/2000/svg" xmlns:xlink="http://www.w3.org/1999/xlink" x="0px" y="0px"
	 viewBox="0 0 1331 400" style="enable-background:new 0 0 1331 400;" xml:space="preserve">
<style type="text/css">
	.st0{fill:none;stroke:#CCCCCC;}
	.st1{fill:#231F20;}
	.st2{font-family:'ArialMT';}
	.st3{font-size:12px;}
	.st4{display:none;fill:#FFFFFF;enable-background:new    ;}
	.st5{clip-path:url(#SVGID_2_);}
	.st6{opacity:0.25;fill:none;stroke:#BDBDBD;enable-background:new    ;}
	.st7{fill:none;stroke:#999999;stroke-width:1.5;}
	.st8{fill:none;stroke:#33BBEE;stroke-width:2;}
	.st9{opacity:0.9331;}
	.st10{clip-path:url(#SVGID_4_);}
	.st11{fill:#FFFFFF;}
</style>
<g>
	<g>
		<g>
			<g>
				<g>
					<line class="st0" x1="50" y1="342.7" x2="45" y2="342.7"/>
					<line class="st0" x1="50" y1="305" x2="45" y2="305"/>
					<line class="st0" x1="50" y1="267.3" x2="45" y2="267.3"/>
					<line class="st0" x1="50" y1="229.6" x2="45" y2="229.6"/>
					<line class="st0" x1="50" y1="191.9" x2="45" y2="191.9"/>
					<line class="st0" x1="50" y1="154.2" x2="45" y2="154.2"/>
					<line class="st0" x1="50" y1="116.5" x2="45" y2="116.5"/>
					<line class="st0" x1="50" y1="78.8" x2="45" y2="78.8"/>
					<line class="st0" x1="50" y1="41.1" x2="45" y2="41.1"/>
					<line class="st0" x1="50" y1="3.4" x2="45" y2="3.4"/>
				</g>
				<g transform="translate(40, 0)">
					<text transform="matrix(1 0 0 1 -16.6816 346.3079)" class="st1 st2 st3">0.5 </text>
					<text transform="matrix(1 0 0 1 -23.3555 308.6079)" class="st1 st2 st3">0.55</text>
					<text transform="matrix(1 0 0 1 -16.6816 270.908)" class="st1 st2 st3">0.6</text>
					<text transform="matrix(1 0 0 1 -23.3555 233.2079)" class="st1 st2 st3">0.65</text>
					<text transform="matrix(1 0 0 1 -16.6816 195.5079)" class="st1 st2 st3">0.7</text>
					<text transform="matrix(1 0 0 1 -23.3555 157.8079)" class="st1 st2 st3">0.75</text>
					<text transform="matrix(1 0 0 1 -16.6816 120.1079)" class="st1 st2 st3">0.8</text>
					<text transform="matrix(1 0 0 1 -23.3555 82.4079)" class="st1 st2 st3">0.85</text>
					<text transform="matrix(1 0 0 1 -16.6816 44.7079)" class="st1 st2 st3">0.9</text>
					<text transform="matrix(1 0 0 1 -23.3555 7.0079)" class="st4 st2 st3">0.75</text>
				</g>
				<line class="st0" x1="50" y1="0" x2="50" y2="377"/>
			</g>
		</g>
		<g>
			<defs>
				<rect id="SVGID_1_" x="50" width="1281" height="377"/>
			</defs>
			<clipPath id="SVGID_2_">
				<use xlink:href="#SVGID_1_"  style="overflow:visible;"/>
			</clipPath>
			<g transform="translate(50, 0)" class="st5">
				<g>
					<g>
						<g>
							<line class="st6" x1="88.4" y1="0" x2="88.4" y2="377"/>
							<line class="st6" x1="195.2" y1="0" x2="195.2" y2="377"/>
							<line class="st6" x1="302" y1="0" x2="302" y2="377"/>
							<line class="st6" x1="408.7" y1="0" x2="408.7" y2="377"/>
							<line class="st6" x1="515.5" y1="0" x2="515.5" y2="377"/>
							<line class="st6" x1="622.2" y1="0" x2="622.2" y2="377"/>
							<line class="st6" x1="729" y1="0" x2="729" y2="377"/>
							<line class="st6" x1="835.7" y1="0" x2="835.7" y2="377"/>
							<line class="st6" x1="942.5" y1="0" x2="942.5" y2="377"/>
							<line class="st6" x1="1049.2" y1="0" x2="1049.2" y2="377"/>
							<line class="st6" x1="1155.9" y1="0" x2="1155.9" y2="377"/>
							<line class="st6" x1="1262.7" y1="0" x2="1262.7" y2="377"/>
						</g>
						<g>
							<line class="st6" x1="0" y1="342.7" x2="1281" y2="342.7"/>
							<line class="st6" x1="0" y1="305" x2="1281" y2="305"/>
							<line class="st6" x1="0" y1="267.3" x2="1281" y2="267.3"/>
							<line class="st6" x1="0" y1="229.6" x2="1281" y2="229.6"/>
							<line class="st6" x1="0" y1="191.9" x2="1281" y2="191.9"/>
							<line class="st6" x1="0" y1="154.2" x2="1281" y2="154.2"/>
							<line class="st6" x1="0" y1="116.5" x2="1281" y2="116.5"/>
							<line class="st6" x1="0" y1="78.8" x2="1281" y2="78.8"/>
							<line class="st6" x1="0" y1="41.1" x2="1281" y2="41.1"/>
							<line class="st6" x1="0" y1="3.4" x2="1281" y2="3.4"/>
						</g>
					</g>
				</g>
				<g>
					<g>
						<line class="st7" x1="0" y1="568.9" x2="1281" y2="568.9"/>
					</g>
				</g>
				<g>
					<g>
						<line class="st7" x1="88.4" y1="0" x2="88.4" y2="377"/>
					</g>
				</g>
				<g>
					<g>
						<g>
							<g>
								<g>
									<path class="st8" d="M109.8,480.9l10.7-174.7l10.7-9.7l10.7-2.5l10.7-36.5l10.7-17.5l10.7-4.1l10.7-11.1l10.7-16.5
										l10.7,13.4l10.7-18.1l10.7-8.1l10.7,5.3l10.7-9.4l10.7-10.9l10.7-1l10.7-1.7l10.7-1.4l10.7-7.5l10.7,8.3l10.7-5.1l10.7-8.3
										l10.7-10.4l10.7,5.4l10.7,3.7l10.7-11.4l10.7,1.4l10.7-7.1l10.7,1l10.7-0.6l10.7,0l10.7-3.6l10.7-1.5l10.7-10.2l10.7,7.1
										l10.7-14.9l10.7,5.3l10.7-0.3l10.7,0.6l10.7-7.4l10.7,0l10.7,10.1l10.7-5.7l10.7-3.9l10.7-2.9l10.7,3l10.7-6.6l10.7,5.6
										l10.7-3l10.7-3.4l10.7,1.5l10.7,5.5l10.7-11.4l10.7,2.6l10.7-3.2l10.7,2.3l10.7,3l10.7-1.4l10.7-2.6l10.7,0.1l10.7,0.8
										l10.7,1.2l10.7-1.2l10.7-1.6l10.7,2.9l10.7,2l10.7-2.4l10.7-4.4l10.7,4.3l10.7,3.8l10.7-3.6l10.7-0.1l10.7-2.1l10.7,0.8
										l10.7,1.2l10.7-1l10.7-2.2l10.7,3.3l10.7,0.2l10.7-0.5l10.7-1.9l10.7-0.2l10.7,1.7l10.7,0.3l10.7,0.3l10.7-2.1l10.7-0.6
										l10.7-1l10.7-0.3l10.7,3.1l10.7,0.5l10.7,0l10.7,0l10.7,0.2l10.7-0.7l10.7,0l10.7,0.8l10.7,0.4l10.7-4.4"/>
								</g>
							</g>
						</g>
					</g>
				</g>
				<g>
					<g class="st9">
						<span  fill="rgb(0, 0, 0)" stroke="none" stroke-width="1px">Alt + Scroll to Zoom</span>
					</g>
				</g>
			</g>
		</g>
		<g>
			<defs>
				<rect id="SVGID_3_" x="50" y="377" width="1281" height="23"/>
			</defs>
			<clipPath id="SVGID_4_">
				<use xlink:href="#SVGID_3_"  style="overflow:visible;"/>
			</clipPath>
			<g transform="translate(50, 377)" class="st10">
				<g>
					<g>
						<line class="st0" x1="88.4" y1="0" x2="88.4" y2="5"/>
						<line class="st0" x1="195.2" y1="0" x2="195.2" y2="5"/>
						<line class="st0" x1="302" y1="0" x2="302" y2="5"/>
						<line class="st0" x1="408.7" y1="0" x2="408.7" y2="5"/>
						<line class="st0" x1="515.5" y1="0" x2="515.5" y2="5"/>
						<line class="st0" x1="622.2" y1="0" x2="622.2" y2="5"/>
						<line class="st0" x1="729" y1="0" x2="729" y2="5"/>
						<line class="st0" x1="835.7" y1="0" x2="835.7" y2="5"/>
						<line class="st0" x1="942.5" y1="0" x2="942.5" y2="5"/>
						<line class="st0" x1="1049.2" y1="0" x2="1049.2" y2="5"/>
						<line class="st0" x1="1155.9" y1="0" x2="1155.9" y2="5"/>
						<line class="st0" x1="1262.7" y1="0" x2="1262.7" y2="5"/>
					</g>
					<g transform="translate(0, 8)">
						<text transform="matrix(1 0 0 1 85.1131 11.4)" class="st11 st2 st3">0</text>
						<text transform="matrix(1 0 0 1 188.5262 11.4)" class="st11 st2 st3">10</text>
						<text transform="matrix(1 0 0 1 295.2762 11.4)" class="st11 st2 st3">20</text>
						<text transform="matrix(1 0 0 1 402.0262 11.4)" class="st11 st2 st3">30</text>
						<text transform="matrix(1 0 0 1 508.7762 11.4)" class="st11 st2 st3">40</text>
						<text transform="matrix(1 0 0 1 615.5262 11.4)" class="st11 st2 st3">50</text>
						<text transform="matrix(1 0 0 1 722.2762 11.4)" class="st11 st2 st3">60</text>
						<text transform="matrix(1 0 0 1 829.0262 11.4)" class="st11 st2 st3">70</text>
						<text transform="matrix(1 0 0 1 935.7762 11.4)" class="st11 st2 st3">80</text>
						<text transform="matrix(1 0 0 1 1042.5261 11.4)" class="st11 st2 st3">90</text>
						<text transform="matrix(1 0 0 1 1145.9392 11.4)" class="st11 st2 st3">100</text>
						<text transform="matrix(1 0 0 1 1253.1345 11.4)" class="st11 st2 st3">110</text>
					</g>
					<line class="st0" x1="0" y1="0" x2="1281" y2="0"/>
				</g>
			</g>
		</g>
	</g>
</g>
</svg>
