<?xml version="1.0" encoding="utf-8"?>
<!-- Generator: Adobe Illustrator 21.0.0, SVG Export Plug-In . SVG Version: 6.00 Build 0)  -->
<svg version="1.1" id="Layer_1" xmlns="http://www.w3.org/2000/svg" xmlns:xlink="http://www.w3.org/1999/xlink" x="0px" y="0px"
	 viewBox="0 0 1331 400" style="enable-background:new 0 0 1331 400;" xml:space="preserve">
<style type="text/css">
	.st0{fill:none;stroke:#CCCCCC;}
	.st1{fill:#231F20;}
	.st2{font-family:'ArialMT';}
	.st3{font-size:12px;}
	.st4{clip-path:url(#SVGID_2_);}
	.st5{opacity:0.25;fill:none;stroke:#BDBDBD;enable-background:new    ;}
	.st6{fill:none;stroke:#999999;stroke-width:1.5;}
	.st7{fill:none;stroke:#FF7043;stroke-width:2;}
	.st8{clip-path:url(#SVGID_4_);}
	.st9{fill:#FFFFFF;}
</style>
<g>
	<g>
		<g>
			<g>
				<g>
					<line class="st0" x1="51.6" y1="369.4" x2="46.6" y2="369.4"/>
					<line class="st0" x1="51.6" y1="344.5" x2="46.6" y2="344.5"/>
					<line class="st0" x1="51.6" y1="319.7" x2="46.6" y2="319.7"/>
					<line class="st0" x1="51.6" y1="294.8" x2="46.6" y2="294.8"/>
					<line class="st0" x1="51.6" y1="269.9" x2="46.6" y2="269.9"/>
					<line class="st0" x1="51.6" y1="245" x2="46.6" y2="245"/>
					<line class="st0" x1="51.6" y1="220.2" x2="46.6" y2="220.2"/>
					<line class="st0" x1="51.6" y1="195.3" x2="46.6" y2="195.3"/>
					<line class="st0" x1="51.6" y1="170.4" x2="46.6" y2="170.4"/>
					<line class="st0" x1="51.6" y1="145.5" x2="46.6" y2="145.5"/>
					<line class="st0" x1="51.6" y1="120.7" x2="46.6" y2="120.7"/>
					<line class="st0" x1="51.6" y1="95.8" x2="46.6" y2="95.8"/>
					<line class="st0" x1="51.6" y1="70.9" x2="46.6" y2="70.9"/>
					<line class="st0" x1="51.6" y1="46.1" x2="46.6" y2="46.1"/>
					<line class="st0" x1="51.6" y1="21.2" x2="46.6" y2="21.2"/>
				</g>
				<g transform="translate(41.5625, 0)">
					<text transform="matrix(1 0 0 1 -23.3555 373.0002)" class="st1 st2 st3">0.56</text>
					<text transform="matrix(1 0 0 1 -23.3555 348.1275)" class="st1 st2 st3">0.58</text>
					<text transform="matrix(1 0 0 1 -16.6816 323.2548)" class="st1 st2 st3">0.6</text>
					<text transform="matrix(1 0 0 1 -23.3555 298.382)" class="st1 st2 st3">0.62</text>
					<text transform="matrix(1 0 0 1 -23.3555 273.5093)" class="st1 st2 st3">0.64</text>
					<text transform="matrix(1 0 0 1 -23.3555 248.6366)" class="st1 st2 st3">0.66</text>
					<text transform="matrix(1 0 0 1 -23.3555 223.7639)" class="st1 st2 st3">0.68</text>
					<text transform="matrix(1 0 0 1 -16.6816 198.8911)" class="st1 st2 st3">0.7</text>
					<text transform="matrix(1 0 0 1 -23.3555 174.0184)" class="st1 st2 st3">0.72</text>
					<text transform="matrix(1 0 0 1 -23.3555 149.1457)" class="st1 st2 st3">0.74</text>
					<text transform="matrix(1 0 0 1 -23.3555 124.2729)" class="st1 st2 st3">0.76</text>
					<text transform="matrix(1 0 0 1 -23.3555 99.4003)" class="st1 st2 st3">0.78</text>
					<text transform="matrix(1 0 0 1 -16.6816 74.5275)" class="st1 st2 st3">0.8</text>
					<text transform="matrix(1 0 0 1 -23.3555 49.6548)" class="st1 st2 st3">0.82</text>
					<text transform="matrix(1 0 0 1 -23.3555 24.7821)" class="st1 st2 st3">0.84</text>
				</g>
				<line class="st0" x1="51.6" y1="0" x2="51.6" y2="377"/>
			</g>
		</g>
		<g>
			<g>
				<defs>
					<rect id="SVGID_1_" x="102" width="1279" height="377"/>
				</defs>
				<clipPath id="SVGID_2_">
					<use xlink:href="#SVGID_1_"  style="overflow:visible;"/>
				</clipPath>
				<g transform="translate(51, 0)" class="st4">
					<g>
						<g>
							<g>
								<line class="st5" x1="77.4" y1="0" x2="77.4" y2="377"/>
								<line class="st5" x1="171.2" y1="0" x2="171.2" y2="377"/>
								<line class="st5" x1="265" y1="0" x2="265" y2="377"/>
								<line class="st5" x1="358.8" y1="0" x2="358.8" y2="377"/>
								<line class="st5" x1="452.6" y1="0" x2="452.6" y2="377"/>
								<line class="st5" x1="546.4" y1="0" x2="546.4" y2="377"/>
								<line class="st5" x1="640.2" y1="0" x2="640.2" y2="377"/>
								<line class="st5" x1="734" y1="0" x2="734" y2="377"/>
								<line class="st5" x1="827.7" y1="0" x2="827.7" y2="377"/>
								<line class="st5" x1="921.5" y1="0" x2="921.5" y2="377"/>
								<line class="st5" x1="1015.3" y1="0" x2="1015.3" y2="377"/>
								<line class="st5" x1="1109.1" y1="0" x2="1109.1" y2="377"/>
								<line class="st5" x1="1202.9" y1="0" x2="1202.9" y2="377"/>
							</g>
							<g>
								<line class="st5" x1="0" y1="369.4" x2="1279.4" y2="369.4"/>
								<line class="st5" x1="0" y1="344.5" x2="1279.4" y2="344.5"/>
								<line class="st5" x1="0" y1="319.7" x2="1279.4" y2="319.7"/>
								<line class="st5" x1="0" y1="294.8" x2="1279.4" y2="294.8"/>
								<line class="st5" x1="0" y1="269.9" x2="1279.4" y2="269.9"/>
								<line class="st5" x1="0" y1="245" x2="1279.4" y2="245"/>
								<line class="st5" x1="0" y1="220.2" x2="1279.4" y2="220.2"/>
								<line class="st5" x1="0" y1="195.3" x2="1279.4" y2="195.3"/>
								<line class="st5" x1="0" y1="170.4" x2="1279.4" y2="170.4"/>
								<line class="st5" x1="0" y1="145.5" x2="1279.4" y2="145.5"/>
								<line class="st5" x1="0" y1="120.7" x2="1279.4" y2="120.7"/>
								<line class="st5" x1="0" y1="95.8" x2="1279.4" y2="95.8"/>
								<line class="st5" x1="0" y1="70.9" x2="1279.4" y2="70.9"/>
								<line class="st5" x1="0" y1="46.1" x2="1279.4" y2="46.1"/>
								<line class="st5" x1="0" y1="21.2" x2="1279.4" y2="21.2"/>
							</g>
						</g>
					</g>
					<g>
						<g>
							<line class="st6" x1="0" y1="817.1" x2="1279.4" y2="817.1"/>
						</g>
					</g>
					<g>
						<g>
							<line class="st6" x1="265" y1="0" x2="265" y2="377"/>
						</g>
					</g>
					<g>
						<g>
							<g>
								<g>
									<g>
										<path class="st7" d="M274.4,203.6l9.4,66.8l9.4,71l9.4-5.8l9.4-140.7l9.4,20.2l9.4-19.1l9.4-16.7l9.4,8.1L359,106
											l9.4,32.7l9.4,20.6l9.4,16l9.4-62.9l9.4,16.2l9.4,14.4l9.4-42.6l9.4-1.9l9.4,3.7l9.4-12.4l9.4,3.3l9.4-5.9l9.4,19.2
											l9.4-28.8l9.4,2.9l9.4,7.3l9.4-10.3l9.4,7.4l9.4-3.1l9.4-33.7l9.4,5.7l9.4,17.6l9.4,0.1l9.4-4l9.4-4.7l9.4,16.2l9.4-14.2
											l9.4-1.5l9.4-20.1l9.4,54.7l9.4-33.6l9.4,17.2l9.4-23.7h9.4l9.4-3.2l9.4,4.5l9.4,10.9l9.4-8.2l9.4-17.7L734,61l9.4,8.1
											l9.4,4.7l9.4-20.6l9.4,6.8l9.4,9.4l9.4-13.4l9.4,8.5l9.4-14.4l9.4-0.7l9.4,19.8l9.4-9l9.4-15.6l9.4,9.7l9.4,15.1l9.4-21
											l9.4-0.1l9.4-2l9.4,2.2l9.4,4.8"/>
									</g>
								</g>
							</g>
						</g>
					</g>
				</g>
			</g>
		</g>
		<g>
			<g>
				<defs>
					<rect id="SVGID_3_" x="102" y="754" width="1279" height="23"/>
				</defs>
				<clipPath id="SVGID_4_">
					<use xlink:href="#SVGID_3_"  style="overflow:visible;"/>
				</clipPath>
				<g transform="translate(51, 377)" class="st8">
					<g>
						<g>
							<line class="st0" x1="77.4" y1="0" x2="77.4" y2="5"/>
							<line class="st0" x1="171.2" y1="0" x2="171.2" y2="5"/>
							<line class="st0" x1="265" y1="0" x2="265" y2="5"/>
							<line class="st0" x1="358.8" y1="0" x2="358.8" y2="5"/>
							<line class="st0" x1="452.6" y1="0" x2="452.6" y2="5"/>
							<line class="st0" x1="546.4" y1="0" x2="546.4" y2="5"/>
							<line class="st0" x1="640.2" y1="0" x2="640.2" y2="5"/>
							<line class="st0" x1="734" y1="0" x2="734" y2="5"/>
							<line class="st0" x1="827.7" y1="0" x2="827.7" y2="5"/>
							<line class="st0" x1="921.5" y1="0" x2="921.5" y2="5"/>
							<line class="st0" x1="1015.3" y1="0" x2="1015.3" y2="5"/>
							<line class="st0" x1="1109.1" y1="0" x2="1109.1" y2="5"/>
							<line class="st0" x1="1202.9" y1="0" x2="1202.9" y2="5"/>
						</g>
						<g transform="translate(0, 8)">
							<text transform="matrix(1 0 0 1 68.7473 11.4)" class="st9 st2 st3">-20</text>
							<text transform="matrix(1 0 0 1 162.5378 11.4)" class="st9 st2 st3">-10</text>
							<text transform="matrix(1 0 0 1 261.6632 11.4)" class="st9 st2 st3">0</text>
							<text transform="matrix(1 0 0 1 352.1167 11.4)" class="st9 st2 st3">10</text>
							<text transform="matrix(1 0 0 1 445.9072 11.4)" class="st9 st2 st3">20</text>
							<text transform="matrix(1 0 0 1 539.6976 11.4)" class="st9 st2 st3">30</text>
							<text transform="matrix(1 0 0 1 633.488 11.4)" class="st9 st2 st3">40</text>
							<text transform="matrix(1 0 0 1 727.2784 11.4)" class="st9 st2 st3">50</text>
							<text transform="matrix(1 0 0 1 821.0689 11.4)" class="st9 st2 st3">60</text>
							<text transform="matrix(1 0 0 1 914.8594 11.4)" class="st9 st2 st3">70</text>
							<text transform="matrix(1 0 0 1 1008.6498 11.4)" class="st9 st2 st3">80</text>
							<text transform="matrix(1 0 0 1 1102.4402 11.4)" class="st9 st2 st3">90</text>
							<text transform="matrix(1 0 0 1 1192.8938 11.4)" class="st9 st2 st3">100</text>
						</g>
						<line class="st0" x1="0" y1="0" x2="1279.4" y2="0"/>
					</g>
				</g>
			</g>
		</g>
	</g>
</g>
</svg>
