<?xml version="1.0" encoding="utf-8"?>
<!-- Generator: Adobe Illustrator 21.0.0, SVG Export Plug-In . SVG Version: 6.00 Build 0)  -->
<svg version="1.1" id="Layer_1" xmlns="http://www.w3.org/2000/svg" xmlns:xlink="http://www.w3.org/1999/xlink" x="0px" y="0px"
	 viewBox="0 0 330 200" style="enable-background:new 0 0 330 200;" xml:space="preserve">
<style type="text/css">
	.st0{fill:none;stroke:#CCCCCC;}
	.st1{display:none;fill:#FFFFFF;enable-background:new    ;}
	.st2{font-family:'ArialMT';}
	.st3{font-size:12px;}
	.st4{fill:#231F20;}
	.st5{clip-path:url(#SVGID_2_);}
	.st6{opacity:0.25;fill:none;stroke:#BDBDBD;enable-background:new    ;}
	.st7{fill:none;stroke:#999999;stroke-width:1.5;}
	.st8{fill:none;stroke:#33BBEE;stroke-width:2;}
	.st9{clip-path:url(#SVGID_4_);}
	.st10{fill:#FFFFFF;}
</style>
<g>
	<g>
		<g>
			<g>
				<g>
					<line class="st0" x1="51.6" y1="177" x2="46.6" y2="177"/>
					<line class="st0" x1="51.6" y1="154.9" x2="46.6" y2="154.9"/>
					<line class="st0" x1="51.6" y1="132.8" x2="46.6" y2="132.8"/>
					<line class="st0" x1="51.6" y1="110.6" x2="46.6" y2="110.6"/>
					<line class="st0" x1="51.6" y1="88.5" x2="46.6" y2="88.5"/>
					<line class="st0" x1="51.6" y1="66.4" x2="46.6" y2="66.4"/>
					<line class="st0" x1="51.6" y1="44.3" x2="46.6" y2="44.3"/>
					<line class="st0" x1="51.6" y1="22.1" x2="46.6" y2="22.1"/>
					<line class="st0" x1="51.6" y1="0" x2="46.6" y2="0"/>
				</g>
				<g transform="translate(41.5625, 0)">
					<text transform="matrix(1 0 0 1 -23.3555 180.6)" class="st1 st2 st3">1.05</text>
					<text transform="matrix(1 0 0 1 -16.6816 158.475)" class="st4 st2 st3">0.9</text>
					<text transform="matrix(1 0 0 1 -23.3555 136.35)" class="st1 st2 st3">1.15</text>
					<text transform="matrix(1 0 0 1 -6.3483 114.2256)" class="st4 st2 st3">1</text>
					<text transform="matrix(1 0 0 1 -23.3555 92.1)" class="st1 st2 st3">1.25</text>
					<text transform="matrix(1 0 0 1 -16.6816 69.975)" class="st4 st2 st3">1.1</text>
					<text transform="matrix(1 0 0 1 -23.3555 47.85)" class="st1 st2 st3">1.35</text>
					<text transform="matrix(1 0 0 1 -16.6816 25.725)" class="st4 st2 st3">1.2</text>
					<text transform="matrix(1 0 0 1 -23.3555 3.6)" class="st1 st2 st3">1.45</text>
				</g>
				<line class="st0" x1="51.6" y1="0" x2="51.6" y2="177"/>
			</g>
		</g>
		<g>
			<defs>
				<rect id="SVGID_1_" x="51" width="278" height="177"/>
			</defs>
			<clipPath id="SVGID_2_">
				<use xlink:href="#SVGID_1_"  style="overflow:visible;"/>
			</clipPath>
			<g transform="translate(51, 0)" class="st5">
				<g>
					<g>
						<g>
							<line class="st6" x1="0" y1="0" x2="0" y2="177"/>
							<line class="st6" x1="23.2" y1="0" x2="23.2" y2="177"/>
							<line class="st6" x1="46.4" y1="0" x2="46.4" y2="177"/>
							<line class="st6" x1="69.6" y1="0" x2="69.6" y2="177"/>
							<line class="st6" x1="92.8" y1="0" x2="92.8" y2="177"/>
							<line class="st6" x1="116" y1="0" x2="116" y2="177"/>
							<line class="st6" x1="139.2" y1="0" x2="139.2" y2="177"/>
							<line class="st6" x1="162.4" y1="0" x2="162.4" y2="177"/>
							<line class="st6" x1="185.6" y1="0" x2="185.6" y2="177"/>
							<line class="st6" x1="208.8" y1="0" x2="208.8" y2="177"/>
							<line class="st6" x1="232" y1="0" x2="232" y2="177"/>
							<line class="st6" x1="255.2" y1="0" x2="255.2" y2="177"/>
							<line class="st6" x1="278.4" y1="0" x2="278.4" y2="177"/>
						</g>
						<g>
							<line class="st6" x1="0" y1="177" x2="278.4" y2="177"/>
							<line class="st6" x1="0" y1="154.9" x2="278.4" y2="154.9"/>
							<line class="st6" x1="0" y1="132.8" x2="278.4" y2="132.8"/>
							<line class="st6" x1="0" y1="110.6" x2="278.4" y2="110.6"/>
							<line class="st6" x1="0" y1="88.5" x2="278.4" y2="88.5"/>
							<line class="st6" x1="0" y1="66.4" x2="278.4" y2="66.4"/>
							<line class="st6" x1="0" y1="44.3" x2="278.4" y2="44.3"/>
							<line class="st6" x1="0" y1="22.1" x2="278.4" y2="22.1"/>
							<line class="st6" x1="0" y1="0" x2="278.4" y2="0"/>
						</g>
					</g>
				</g>
				<g>
					<g>
						<line class="st7" x1="0" y1="641.6" x2="278.4" y2="641.6"/>
					</g>
				</g>
				<g>
					<g>
						<line class="st7" x1="23.2" y1="0" x2="23.2" y2="177"/>
					</g>
				</g>
				<g>
					<g>
						<g>
							<g>
								<g>
									<path class="st8" d="M44.1-6.9l2.3,10.5l2.3,1.5l2.3,8.1l2.3,3.7l2.3,6.3l2.3,5.2l2.3,9l2.3,1.1l2.3,2.6l2.3,6.7l2.3,1.6
										l2.3,5.7l2.3-5.8l2.3,5.2l2.3,4.6l2.3,1.3l2.3,5.9l2.3-1.1l2.3-0.6l2.3,2l2.3,4.1l2.3,0.7l2.3,0.6l2.3-0.2l2.3,5.1l2.3,0.2
										l2.3,9.1l2.3-2.5l2.3-0.7l2.3,2.4l2.3,5.3l2.3-0.8l2.3,4l2.3-1.8l2.3,3l2.3-1.4l2.3,1.2l2.3,3.6l2.3,0.2l2.3,0.3l2.3,3.8
										l2.3-0.2l2.3,4.3l2.3-2.5l2.3,1.4l2.3,0.4l2.3,5.3l2.3-1.6l2.3-1.4l2.3,5.4l2.3-3.8l2.3,5.7l2.3-2.1l2.3,1.7l2.3,0.2
										l2.3,2.9l2.3,0.4l2.3,0.9l2.3,2.9l2.3,0.4l2.3-0.4l2.3,2.4l2.3,2.7l2.3-2.1l2.3-0.4l2.3,3.1l2.3,1.6l2.3-1l2.3,2.7l2.3,0.3
										l2.3-1.6l2.3,4.3l2.3,0.1l2.3,2.2l2.3-1.9l2.3,1.1l2.3-1.3l2.3,3.7l2.3-1.4l2.3,3.1l2.3-1l2.3-8.4l2.3,5.5l2.3,1.3l2.3-1.5
										l2.3,1.8l2.3,0.1l2.3,1.1l2.3,2.2l2.3,2.9l2.3-0.6"/>
								</g>
							</g>
						</g>
					</g>
				</g>
			</g>
		</g>
		<g>
			<defs>
				<rect id="SVGID_3_" x="51" y="177" width="278" height="23"/>
			</defs>
			<clipPath id="SVGID_4_">
				<use xlink:href="#SVGID_3_"  style="overflow:visible;"/>
			</clipPath>
			<g transform="translate(51, 177)" class="st9">
				<g>
					<g>
						<line class="st0" x1="0" y1="0" x2="0" y2="5"/>
						<line class="st0" x1="23.2" y1="0" x2="23.2" y2="5"/>
						<line class="st0" x1="46.4" y1="0" x2="46.4" y2="5"/>
						<line class="st0" x1="69.6" y1="0" x2="69.6" y2="5"/>
						<line class="st0" x1="92.8" y1="0" x2="92.8" y2="5"/>
						<line class="st0" x1="116" y1="0" x2="116" y2="5"/>
						<line class="st0" x1="139.2" y1="0" x2="139.2" y2="5"/>
						<line class="st0" x1="162.4" y1="0" x2="162.4" y2="5"/>
						<line class="st0" x1="185.6" y1="0" x2="185.6" y2="5"/>
						<line class="st0" x1="208.8" y1="0" x2="208.8" y2="5"/>
						<line class="st0" x1="232" y1="0" x2="232" y2="5"/>
						<line class="st0" x1="255.2" y1="0" x2="255.2" y2="5"/>
						<line class="st0" x1="278.4" y1="0" x2="278.4" y2="5"/>
					</g>
					<g transform="translate(0, 8)">
						<text transform="matrix(1 0 0 1 -8.6719 11.4)" class="st1 st2 st3">-10</text>
						<text transform="matrix(1 0 0 1 19.8662 11.4)" class="st10 st2 st3">0</text>
						<text transform="matrix(1 0 0 1 39.7324 11.4)" class="st10 st2 st3">10</text>
						<text transform="matrix(1 0 0 1 62.9355 11.4)" class="st10 st2 st3">20</text>
						<text transform="matrix(1 0 0 1 86.1387 11.4)" class="st10 st2 st3">30</text>
						<text transform="matrix(1 0 0 1 109.3418 11.4)" class="st10 st2 st3">40</text>
						<text transform="matrix(1 0 0 1 132.5449 11.4)" class="st10 st2 st3">50</text>
						<text transform="matrix(1 0 0 1 155.748 11.4)" class="st10 st2 st3">60</text>
						<text transform="matrix(1 0 0 1 178.9512 11.4)" class="st10 st2 st3">70</text>
						<text transform="matrix(1 0 0 1 202.1543 11.4)" class="st10 st2 st3">80</text>
						<text transform="matrix(1 0 0 1 225.3574 11.4)" class="st10 st2 st3">90</text>
						<text transform="matrix(1 0 0 1 245.2236 11.4)" class="st10 st2 st3">100</text>
						<text transform="matrix(1 0 0 1 268.8721 11.4)" class="st1 st2 st3">110</text>
					</g>
					<line class="st0" x1="0" y1="0" x2="278.4" y2="0"/>
				</g>
			</g>
		</g>
	</g>
</g>
</svg>
